<?xml version="1.0" encoding="UTF-8"?>
<svg id="Capa_1" xmlns="http://www.w3.org/2000/svg" version="1.1" viewBox="55 315 970 450">
  <!-- Generator: Adobe Illustrator 30.2.1, SVG Export Plug-In . SVG Version: 2.1.1 Build 1)  -->
  <g>
    <path d="M228.07,337.38h-37.11c-33.95,96.72-75.79,238.18-108.96,336.87h183.84l11.05-32.37h-146.73c29.61-90.4,67.11-218.04,97.9-304.5Z"/>
    <path d="M997.98,455.02h-33.96l-5.92,17.37c-5.53-11.05-21.32-21.32-37.9-21.32-41.42,0-74.61,43.05-80.11,90.77-16.01,23.42-32.21,39.5-44.24,39.5-5.92,0-9.48-3.55-9.48-9.87,0-19.74,32.38-59.61,31.98-87.64-.4-19.74-13.42-32.77-32.37-32.77-20.92,0-42.64,13.03-58.42,37.9l11.84-33.95h-33.56c-8.03,23.19-15.95,46.47-23.81,69.78-23.46,40.14-48.24,59.71-82.78,59.71-25.66,0-37.9-11.45-40.26-29.21,43.43,9.87,94.35-13.42,94.35-59.61,0-21.71-15.4-44.61-45.79-44.61-46.25,0-79.45,43.35-82.97,92.09-14.8,21.33-31.59,38.19-42.17,38.19-7.11,0-10.66-4.74-10.66-13.03,0-20.13,24.48-72.64,39.48-105.4-14.61.39-44.61-1.18-63.95-4.34l4.74-16.58h-31.58c-11.84,45.4-29.61,75.8-56.06,87.24,1.18-7.1,1.97-13.82,1.97-20.92,0-28.42-16.97-57.24-51.71-57.24-49.74,0-86.06,50.93-86.06,105.8,0,32.37,20.13,56.85,52.5,56.85s58.03-21.71,72.24-50.53c33.95-6.32,62.77-31.98,82.9-76.59,10.27,2.37,21.71,3.55,29.61,3.95-14.61,31.98-28.82,61.19-28.82,86.45,0,19.74,12.24,36.71,35.13,36.71,19.67,0,40.02-17.24,56.36-38.18,9.21,24.04,32.79,38.18,63.25,38.18s51.5-9.05,68.35-23.14c-2.11,6.4-4.28,12.79-6.38,19.19h34.74c13.42-50.92,45.79-127.51,81.71-127.51,8.29,0,11.05,4.74,11.05,12.24,0,20.53-30,54.87-30,85.27,0,20.13,12.24,33.95,34.35,33.95,20.07,0,40.12-16.23,56.44-36.4,5.9,21.92,21.11,36.4,42.64,36.4,23.69,0,37.11-14.21,45.01-26.45,1.97,11.84,10.26,26.45,30,26.45h.4c13.13-.16,26.84-6.65,37.9-14.47v-31.67c-12.87,11.45-23.89,13.76-28.82,13.76-16.19,0-7.5-26.45,28.82-126.33ZM605.19,479.89c10.26,0,16.19,7.5,15.79,17.37-.39,25.27-32.77,40.27-60.8,35.13,4.74-28.42,22.9-52.5,45.01-52.5ZM285.43,582.53c-13.42,0-22.5-10.27-22.5-29.61,0-32.77,22.11-72.24,46.58-72.24,15.01,0,22.11,13.03,22.11,29.61,0,32.77-22.11,72.24-46.19,72.24ZM896.13,581.34c-15.01,0-21.71-13.82-21.71-28.03,0-34.34,18.95-71.45,48.16-71.45,11.84,0,22.11,7.1,26.45,16.58-15.79,54.48-32.37,82.9-52.9,82.9Z"/>
  </g>
  <g>
    <path d="M364.68,704.55c0-22.22,13.04-38.08,35.56-38.08,17.34,0,28.15,9.34,31.41,21.93h.74v-46.52h10.52v99.27h-9.63v-21.63h-.59c-3.56,14.67-15.41,23.11-31.56,23.11-23.41,0-36.45-15.85-36.45-38.08ZM403.8,732.99c17.19,0,28.6-9.93,28.6-27.26v-1.33c0-18.08-10.82-28.15-28.89-28.15-16.74,0-28.15,7.11-28.15,28.3s11.26,28.45,28.45,28.45Z"/>
    <path d="M456.85,704.55c0-22.22,14.82-38.08,38.38-38.08,21.48,0,36.74,12.45,36.74,34.23,0,2.67-.3,4.89-.74,6.82h-64.45c.59,16.45,9.04,26.37,28.45,26.37,17.19,0,25.19-6.37,25.19-17.04v-1.04h10.52v1.04c0,15.26-15.11,25.78-35.56,25.78-23.56,0-38.52-14.82-38.52-38.08ZM466.78,700.99h55.27v-2.22c0-15.41-9.78-23.56-26.97-23.56-18.97,0-27.56,9.78-28.3,25.78Z"/>
    <path d="M545.91,741.14v-99.27h10.52v99.27h-10.52Z"/>
    <path d="M600.14,741.14v-99.27h52.16c17.78,0,29.49,8.89,29.49,24.59,0,11.41-6.37,20-20.01,22.08v.89c15.26,2.52,23.11,11.56,23.11,24.3,0,17.19-12.15,27.41-31.11,27.41h-53.64ZM610.66,685.14h39.86c13.48,0,20.74-5.33,20.74-16.74s-6.37-16.89-19.85-16.89h-40.75v33.63ZM610.66,731.51h42.23c14.08,0,21.34-5.78,21.34-18.82s-7.56-18.52-21.34-18.52h-42.23v37.34Z"/>
    <path d="M697.05,710.77v-42.82h10.52v41.19c0,15.26,7.41,24,24.3,24,17.93,0,27.26-10.82,27.26-29.63v-35.56h10.52v73.2h-9.48v-22.82h-.74c-2.52,12.44-13.04,24.3-31.26,24.3-20.89,0-31.11-14.52-31.11-31.86Z"/>
    <path d="M783.88,716.7v-.3h10.52v.89c0,12.3,7.26,16.59,25.19,16.59,16.45,0,22.08-3.85,22.08-12.3,0-7.71-4.59-10.22-16.74-12.15l-19.56-2.81c-13.33-1.78-21.78-6.97-21.78-19.11,0-12.89,12.3-21.04,32.45-21.04s34.67,8.89,34.67,26.08v.29h-10.52v-.74c0-10.97-5.78-16.89-24.45-16.89-15.41,0-21.78,3.7-21.78,12.45,0,7.56,3.85,10.22,16,12l17.93,2.52c15.7,2.22,24.15,7.56,24.15,19.41,0,13.78-13.63,21.04-32.6,21.04-22.52,0-35.56-9.04-35.56-25.93Z"/>
    <path d="M894.87,741.14c-14.52,0-23.85-6.07-23.85-23.26v-40.89h-13.04v-9.04h13.04v-17.48h10.67v17.48h29.04v9.04h-29.04v41.49c0,10.22,5.04,13.04,15.71,13.04h13.33v9.63h-15.85Z"/>
    <path d="M918.43,704.55c0-22.22,15.85-38.08,39.71-38.08s39.86,15.86,39.86,38.08-15.86,38.08-39.86,38.08-39.71-15.85-39.71-38.08ZM987.63,704.55c0-17.63-9.34-28.6-29.48-28.6s-29.34,10.97-29.34,28.6,9.19,28.6,29.34,28.6,29.48-10.82,29.48-28.6Z"/>
  </g>
</svg>
